<svg width="238" height="238" viewBox="0 0 238 238" fill="none" xmlns="http://www.w3.org/2000/svg">
<mask id="path-1-inside-1" fill="white">
<path d="M237.5 -1.03815e-05C206.311 -9.01814e-06 175.427 6.14312 146.613 18.0786C117.798 30.0141 91.616 47.5082 69.5621 69.5621C47.5082 91.6161 30.0141 117.798 18.0786 146.613C6.1431 175.428 -1.31081e-05 206.311 -1.03815e-05 237.5L237.5 237.5L237.5 -1.03815e-05Z"/>
</mask>
<path d="M237.5 -1.03815e-05C206.311 -9.01814e-06 175.427 6.14312 146.613 18.0786C117.798 30.0141 91.616 47.5082 69.5621 69.5621C47.5082 91.6161 30.0141 117.798 18.0786 146.613C6.1431 175.428 -1.31081e-05 206.311 -1.03815e-05 237.5L237.5 237.5L237.5 -1.03815e-05Z" stroke="#212121" stroke-width="2" mask="url(#path-1-inside-1)"/>
</svg>
