<svg width="238" height="238" viewBox="0 0 238 238" fill="none" xmlns="http://www.w3.org/2000/svg">
<mask id="path-1-inside-1" fill="white">
<path d="M238 237.5C238 206.311 231.857 175.428 219.921 146.613C207.986 117.798 190.492 91.6161 168.438 69.5621C146.384 47.5082 120.202 30.0141 91.3873 18.0786C62.5725 6.14312 31.6889 -1.36331e-06 0.499985 0L0.5 237.5L238 237.5Z"/>
</mask>
<path d="M238 237.5C238 206.311 231.857 175.428 219.921 146.613C207.986 117.798 190.492 91.6161 168.438 69.5621C146.384 47.5082 120.202 30.0141 91.3873 18.0786C62.5725 6.14312 31.6889 -1.36331e-06 0.499985 0L0.5 237.5L238 237.5Z" stroke="#212121" stroke-width="2" mask="url(#path-1-inside-1)"/>
</svg>
