<svg width="12" height="12" viewBox="0 0 12 12" fill="none" xmlns="http://www.w3.org/2000/svg">
<path d="M1.50905 1.50905C2.48217 0.535922 3.77599 0 5.15217 0C6.52835 0 7.82217 0.535922 8.79527 1.50905C9.76838 2.48215 10.3043 3.77597 10.3043 5.15213C10.3043 6.41032 9.8561 7.59949 9.0356 8.53786L11.8969 11.3992C12.0344 11.5366 12.0344 11.7595 11.8969 11.8969C11.8282 11.9656 11.7381 12 11.6481 12C11.558 12 11.4679 11.9656 11.3992 11.8969L8.53791 9.03558C7.59954 9.85606 6.41037 10.3043 5.15217 10.3043C3.77597 10.3043 2.48219 9.76838 1.50907 8.79525C0.535968 7.82215 4.673e-05 6.52833 4.673e-05 5.15215C4.673e-05 3.77597 0.535945 2.48215 1.50905 1.50905ZM2.00677 8.29755C3.74116 10.0319 6.56316 10.0319 8.29755 8.29755C10.0319 6.56318 10.0319 3.74114 8.29755 2.00677C7.43027 1.13948 6.2914 0.705984 5.15215 0.705984C4.01318 0.705984 2.87384 1.1397 2.00674 2.00677C0.272413 3.74112 0.272413 6.56316 2.00677 8.29755Z" fill="#939393"/>
</svg>
